<?xml version="1.0" encoding="UTF-8"?>
<!DOCTYPE svg PUBLIC "-//W3C//DTD SVG 1.1//EN" "http://www.w3.org/Graphics/SVG/1.1/DTD/svg11.dtd">
<!-- Creator: CorelDRAW -->
<svg xmlns="http://www.w3.org/2000/svg" xml:space="preserve" width="100px" height="100px" version="1.1" style="shape-rendering:geometricPrecision; text-rendering:geometricPrecision; image-rendering:optimizeQuality; fill-rule:evenodd; clip-rule:evenodd"
viewBox="0 0 100 100"
 xmlns:xlink="http://www.w3.org/1999/xlink"
 xmlns:xodm="http://www.corel.com/coreldraw/odm/2003">
 <defs>
  <style type="text/css">
   <![CDATA[
    .str0 {stroke:#1C274C;stroke-width:1.56;stroke-miterlimit:22.9256}
    .str1 {stroke:#1C274C;stroke-width:9.13;stroke-miterlimit:22.9256}
    .str2 {stroke:#1C274C;stroke-width:9.13;stroke-linecap:round;stroke-linejoin:round;stroke-miterlimit:22.9256}
    .fil1 {fill:none;fill-rule:nonzero}
    .fil2 {fill:#1C274C;fill-rule:nonzero}
    .fil0 {fill:#1C274C;fill-rule:nonzero}
   ]]>
  </style>
 </defs>
 <g id="Layer_x0020_1">
  <metadata id="CorelCorpID_0Corel-Layer"/>
  <path class="fil0 str0" d="M65.54 13.62l-2.3 2.55 2.3 -2.55zm18.12 16.31l-2.3 2.55 2.3 -2.55zm10.54 11.62l-3.13 1.4 0 0 3.13 -1.4zm-84.62 48.87l2.43 -2.43 0 0 -2.43 2.43zm80.84 0l-2.43 -2.43 0 0 2.43 2.43zm-31.26 1.93l-18.32 0 0 6.87 18.32 0 0 -6.87zm-51.51 -33.19l0 -18.32 -6.87 0 0 18.32 6.87 0zm84.7 -2l0 2 6.87 0 0 -2 -6.87 0zm-29.11 -40.99l18.12 16.31 4.6 -5.1 -18.13 -16.32 -4.59 5.11zm35.98 40.99c0,-7.73 0.07,-12.63 -1.88,-17.01l-6.27 2.8c1.21,2.73 1.28,5.87 1.28,14.21l6.87 0zm-17.86 -24.68c6.2,5.58 8.49,7.73 9.71,10.47l6.27 -2.8c-1.95,-4.38 -5.64,-7.6 -11.38,-12.77l-4.6 5.1zm-40.38 -24.83c7.24,0 9.97,0.05 12.41,0.98l2.46 -6.41c-3.9,-1.49 -8.15,-1.44 -14.87,-1.44l0 6.87zm26.85 3.41c-4.97,-4.47 -8.08,-7.34 -11.98,-8.84l-2.46 6.41c2.44,0.94 4.49,2.72 9.85,7.54l4.59 -5.11zm-26.99 81.29c-8.73,0 -14.93,0 -19.64,-0.64 -4.6,-0.62 -7.26,-1.78 -9.19,-3.72l-4.86 4.86c3.43,3.43 7.77,4.95 13.14,5.67 5.27,0.71 12.02,0.7 20.55,0.7l0 -6.87zm-40.06 -33.19c0,8.53 -0.01,15.28 0.7,20.55 0.72,5.37 2.24,9.71 5.67,13.14l4.86 -4.86c-1.94,-1.93 -3.1,-4.59 -3.72,-9.19 -0.64,-4.71 -0.64,-10.91 -0.64,-19.64l-6.87 0zm58.38 40.06c8.53,0 15.28,0.01 20.55,-0.7 5.37,-0.72 9.71,-2.24 13.14,-5.67l-4.86 -4.86c-1.93,1.94 -4.59,3.1 -9.19,3.72 -4.71,0.64 -10.91,0.64 -19.64,0.64l0 6.87zm33.19 -40.06c0,8.73 0,14.93 -0.64,19.64 -0.62,4.6 -1.78,7.26 -3.72,9.19l4.86 4.86c3.43,-3.43 4.95,-7.77 5.67,-13.14 0.71,-5.27 0.7,-12.02 0.7,-20.55l-6.87 0zm-84.7 -18.32c0,-8.73 0,-14.93 0.64,-19.64 0.62,-4.6 1.78,-7.26 3.72,-9.19l-4.86 -4.86c-3.43,3.43 -4.95,7.77 -5.67,13.14 -0.71,5.27 -0.7,12.02 -0.7,20.55l6.87 0zm33.33 -40.06c-8.58,0 -15.36,-0.01 -20.66,0.7 -5.38,0.72 -9.74,2.24 -13.17,5.67l4.86 4.86c1.93,-1.94 4.59,-3.1 9.23,-3.72 4.73,-0.64 10.96,-0.64 19.74,-0.64l0 -6.87z"/>
  <path class="fil1 str1" d="M54.58 6.5l0 11.45c0,10.79 0,16.19 3.35,19.54 3.35,3.35 8.75,3.35 19.54,3.35l18.32 0"/>
  <ellipse class="fil2" cx="72.89" cy="61.45" rx="4.58" ry="6.87"/>
  <path class="fil1 str2" d="M36.26 75.18c8.32,5.55 19.16,5.55 27.48,0"/>
  <ellipse class="fil2" cx="27.11" cy="61.45" rx="4.58" ry="6.87"/>
 </g>
</svg>
